<svg width="244" height="244" viewBox="0 0 244 244" fill="none" xmlns="http://www.w3.org/2000/svg">
<rect x="5" y="5" width="234" height="234" rx="59" fill="#222222" stroke="#A3F7BF" stroke-width="10"/>
<rect x="13" y="13" width="218" height="218" rx="102" fill="#222222"/>
<path d="M157.159 84.9091C156.307 77.7121 152.85 72.125 146.79 68.1477C140.729 64.1705 133.295 62.1818 124.489 62.1818C118.049 62.1818 112.415 63.2235 107.585 65.3068C102.803 67.3901 99.0625 70.2547 96.3636 73.9006C93.7121 77.5464 92.3864 81.6894 92.3864 86.3295C92.3864 90.2121 93.3097 93.5502 95.1562 96.3438C97.0502 99.09 99.465 101.386 102.401 103.233C105.336 105.032 108.414 106.524 111.634 107.707C114.853 108.844 117.812 109.767 120.511 110.477L135.284 114.455C139.072 115.449 143.286 116.822 147.926 118.574C152.614 120.326 157.088 122.717 161.349 125.747C165.658 128.73 169.209 132.565 172.003 137.253C174.796 141.94 176.193 147.693 176.193 154.511C176.193 162.371 174.134 169.473 170.014 175.818C165.942 182.163 159.976 187.205 152.116 190.946C144.304 194.687 134.811 196.557 123.636 196.557C113.22 196.557 104.2 194.876 96.5767 191.514C89.0009 188.152 83.035 183.465 78.679 177.452C74.3703 171.438 71.9318 164.455 71.3636 156.5H89.5455C90.0189 161.992 91.8655 166.538 95.0852 170.136C98.3523 173.687 102.472 176.339 107.443 178.091C112.462 179.795 117.86 180.648 123.636 180.648C130.36 180.648 136.397 179.559 141.747 177.381C147.098 175.155 151.335 172.078 154.46 168.148C157.585 164.17 159.148 159.53 159.148 154.227C159.148 149.398 157.798 145.468 155.099 142.438C152.401 139.407 148.849 136.945 144.446 135.051C140.043 133.157 135.284 131.5 130.17 130.08L112.273 124.966C100.909 121.699 91.9129 117.035 85.2841 110.974C78.6553 104.914 75.3409 96.983 75.3409 87.1818C75.3409 79.0379 77.5426 71.9356 81.946 65.875C86.3968 59.767 92.3627 55.0322 99.8438 51.6705C107.372 48.2614 115.777 46.5568 125.057 46.5568C134.432 46.5568 142.765 48.2377 150.057 51.5994C157.348 54.9138 163.125 59.4593 167.386 65.2358C171.695 71.0123 173.968 77.5701 174.205 84.9091H157.159Z" fill="#A3F7BF"/>
</svg>
