<svg width="24" height="24" viewBox="0 0 24 24" fill="none" xmlns="http://www.w3.org/2000/svg">
<path d="M2.72118 0C1.08122 0 0 1.12006 0 2.60014C0 4.04021 1.0406 5.19902 2.64056 5.19902C4.36051 5.19902 5.44048 4.04021 5.40048 2.60014C5.40048 1.12006 4.36114 0 2.72118 0ZM18.0795 6.88036C15.3196 6.88036 13.6403 8.47982 12.9603 9.59987H12.8809L12.6403 7.24038H8.20104C8.24104 8.76046 8.32041 10.5205 8.32041 12.6007V24H13.4396V14.3595C13.4396 13.8795 13.4796 13.4001 13.5996 13.0401C13.9996 12.08 14.8402 11.0793 16.2402 11.0793C18.1202 11.0793 18.8401 12.56 18.8401 14.7201V24H24V14.1207C24 9.16048 21.4394 6.88036 18.0795 6.88036ZM0.121246 7.24038V24H5.24049V7.24038H0.121246Z" fill="#A3F7BF"/>
</svg>
