<svg width="28" height="28" viewBox="0 0 28 28" fill="none" xmlns="http://www.w3.org/2000/svg">
<path d="M8.2018 0.0980193C6.71219 0.168252 5.69497 0.406018 4.80562 0.755317C3.88535 1.11407 3.10519 1.59531 2.32901 2.3743C1.55294 3.15328 1.07483 3.93389 0.718765 4.85579C0.37413 5.74689 0.140563 6.76503 0.0747622 8.25545C0.00896189 9.74586 -0.00562151 10.225 0.00172853 14.0269C0.0089619 17.8286 0.025762 18.3052 0.097979 19.7988C0.169146 21.288 0.40598 22.305 0.755399 23.1946C1.11473 24.115 1.5954 24.8947 2.37474 25.6712C3.15396 26.4476 3.934 26.9245 4.858 27.2812C5.74841 27.6253 6.76679 27.8599 8.25699 27.9252C9.74718 27.9905 10.2268 28.0057 14.0276 27.9983C17.8284 27.9911 18.3069 27.9742 19.8 27.9033C21.2934 27.8325 22.3049 27.5939 23.1948 27.2462C24.1152 26.8861 24.8956 26.4062 25.6714 25.6267C26.4473 24.8471 26.925 24.066 27.2809 23.1436C27.6258 22.2532 27.8602 21.2349 27.9249 19.7458C27.9902 18.2514 28.0056 17.7744 27.9984 13.9731C27.991 10.1718 27.9739 9.69522 27.903 8.20225C27.8322 6.70927 27.595 5.69544 27.2459 4.80527C26.8861 3.88489 26.4059 3.10568 25.627 2.32868C24.848 1.55168 24.0661 1.07428 23.1442 0.719268C22.2531 0.374519 21.2354 0.139669 19.7452 0.0752694C18.255 0.0108695 17.7754 -0.00581373 13.9732 0.00165292C10.171 0.00888623 9.69503 0.0252195 8.2018 0.0980193ZM8.36537 25.4066C7.00036 25.3472 6.25918 25.1204 5.76521 24.9306C5.11117 24.6786 4.6452 24.3739 4.15298 23.8864C3.66065 23.399 3.35836 22.9314 3.10298 22.2787C2.91118 21.7848 2.68017 21.0444 2.61636 19.6794C2.54694 18.2042 2.53236 17.7612 2.52419 14.0234C2.51602 10.2858 2.53037 9.84327 2.59501 8.36744C2.65334 7.00362 2.88154 6.26162 3.07101 5.76789C3.32301 5.11304 3.62658 4.64789 4.11518 4.15602C4.60378 3.66404 5.06999 3.36106 5.72321 3.10568C6.21671 2.91306 6.95696 2.68405 8.32139 2.61906C9.79781 2.54906 10.2402 2.53506 13.9774 2.5269C17.7146 2.51873 18.1582 2.53273 19.6352 2.59783C20.999 2.6571 21.7414 2.88308 22.2345 3.07383C22.8888 3.32583 23.3545 3.62846 23.8464 4.11799C24.3384 4.60729 24.6416 5.07186 24.897 5.72647C25.0899 6.21845 25.319 6.95847 25.3834 8.32381C25.4536 9.80022 25.4696 10.243 25.4763 13.9798C25.483 17.7166 25.4698 18.1604 25.4051 19.6358C25.3456 21.0008 25.1193 21.7422 24.9291 22.2367C24.6771 22.8905 24.3734 23.3567 23.8844 23.8484C23.3956 24.3401 22.93 24.643 22.2764 24.8984C21.7836 25.0907 21.0424 25.3203 19.6792 25.3853C18.2026 25.4547 17.7602 25.4693 14.0216 25.4775C10.283 25.4857 9.84179 25.4705 8.36537 25.4066ZM19.7786 6.51747C19.7791 6.84977 19.8782 7.17444 20.0633 7.45042C20.2484 7.7264 20.5112 7.94129 20.8184 8.06791C21.1257 8.19454 21.4635 8.2272 21.7893 8.16178C22.1151 8.09635 22.4142 7.93578 22.6488 7.70037C22.8833 7.46496 23.0427 7.16528 23.1069 6.83924C23.1711 6.5132 23.1372 6.17544 23.0094 5.86869C22.8817 5.56193 22.6658 5.29996 22.3891 5.11591C22.1124 4.93185 21.7874 4.83398 21.4551 4.83467C21.0096 4.8356 20.5828 5.01339 20.2684 5.32896C19.954 5.64452 19.7778 6.07203 19.7786 6.51747ZM6.81159 14.014C6.81941 17.9844 10.044 21.1956 14.0135 21.1881C17.9832 21.1806 21.1967 17.9564 21.1892 13.986C21.1816 10.0156 17.9564 6.80342 13.9862 6.81123C10.016 6.81905 6.80413 10.0441 6.81159 14.014ZM9.33336 14.009C9.33154 13.086 9.60345 12.1832 10.1147 11.4148C10.626 10.6463 11.3536 10.0468 12.2056 9.69187C13.0577 9.33698 13.9958 9.24271 14.9014 9.42097C15.807 9.59924 16.6394 10.042 17.2933 10.6934C17.9473 11.3447 18.3934 12.1753 18.5752 13.0802C18.7571 13.9851 18.6666 14.9236 18.3151 15.777C17.9635 16.6304 17.3669 17.3604 16.6005 17.8747C15.8341 18.3891 14.9324 18.6646 14.0094 18.6664C13.3965 18.6677 12.7894 18.5482 12.2227 18.3149C11.656 18.0815 11.1408 17.7388 10.7066 17.3063C10.2724 16.8738 9.92763 16.36 9.692 15.7942C9.45637 15.2285 9.33451 14.6218 9.33336 14.009Z" fill="white"/>
</svg>
