<svg width="21" height="18" viewBox="0 0 21 18" fill="none" xmlns="http://www.w3.org/2000/svg">
<path d="M17.2662 5.82818C17.0484 5.75602 16.8226 5.68774 16.5902 5.62316C16.6284 5.47311 16.6635 5.32501 16.6946 5.17942C17.2064 2.78881 16.8718 0.862914 15.7293 0.228828C14.6337 -0.379176 12.8421 0.254766 11.0326 1.7703C10.8586 1.91603 10.6841 2.07033 10.5097 2.23203C10.3935 2.12504 10.2775 2.02165 10.1618 1.92276C8.26537 0.302252 6.36453 -0.380651 5.22314 0.25527C4.12866 0.865037 3.80455 2.67556 4.26518 4.94116C4.30966 5.15999 4.36165 5.38347 4.42045 5.61068C4.15143 5.68418 3.89171 5.76253 3.64321 5.84588C1.41991 6.59188 0 7.76105 0 8.97379C0 10.2263 1.52427 11.4826 3.84002 12.2444C4.02277 12.3045 4.2124 12.3613 4.40782 12.4153C4.34438 12.661 4.28921 12.9018 4.2429 13.1367C3.80369 15.363 4.14668 17.1307 5.23824 17.7367C6.36573 18.3624 8.25796 17.7192 10.1005 16.1692C10.2462 16.0466 10.3923 15.9167 10.5387 15.7805C10.7285 15.9564 10.918 16.1228 11.1064 16.2789C12.8912 17.757 14.6539 18.3539 15.7444 17.7463C16.8708 17.1187 17.2369 15.2197 16.7616 12.9093C16.7253 12.7329 16.6831 12.5526 16.6357 12.3691C16.7685 12.3313 16.899 12.2923 17.0262 12.2517C19.4336 11.4841 21 10.243 21 8.97379C21 7.75667 19.5343 6.57962 17.2662 5.82818ZM16.7441 11.4322C16.6292 11.4688 16.5114 11.5041 16.3913 11.5384C16.1256 10.7287 15.7669 9.86761 15.3279 8.978C15.7468 8.10958 16.0916 7.25953 16.35 6.45504C16.5648 6.51486 16.7733 6.57796 16.9742 6.64455C18.9175 7.28839 20.1029 8.24031 20.1029 8.97379C20.1029 9.75508 18.8227 10.7693 16.7441 11.4322ZM15.8816 13.077C16.0917 14.0986 16.1217 15.0223 15.9825 15.7444C15.8574 16.3932 15.6059 16.8258 15.2949 16.9991C14.6331 17.3677 13.2178 16.8885 11.6915 15.6245C11.5165 15.4796 11.3403 15.3248 11.1635 15.1611C11.7552 14.5382 12.3466 13.8142 12.9238 13.0101C13.939 12.9234 14.8981 12.7816 15.7679 12.5881C15.8107 12.7544 15.8488 12.9175 15.8816 13.077ZM7.15937 16.9354C6.51278 17.1551 5.9978 17.1614 5.6865 16.9887C5.0241 16.621 4.74872 15.2017 5.12435 13.2977C5.16737 13.0797 5.21858 12.8557 5.2776 12.6268C6.13786 12.8099 7.08996 12.9416 8.10759 13.021C8.68865 13.8079 9.29712 14.5311 9.9103 15.1644C9.77633 15.2889 9.64288 15.4074 9.51019 15.5191C8.69542 16.2045 7.87893 16.6908 7.15937 16.9354ZM4.13016 11.4274C3.10618 11.0906 2.26054 10.6528 1.68089 10.1751C1.16004 9.7458 0.897076 9.31961 0.897076 8.97379C0.897076 8.23786 2.03712 7.29918 3.93851 6.66117C4.16922 6.58375 4.41073 6.5108 4.66136 6.44227C4.92414 7.26493 5.26886 8.12504 5.68486 8.9948C5.26348 9.87747 4.91386 10.7513 4.6485 11.5836C4.46983 11.5342 4.29672 11.4821 4.13016 11.4274ZM5.14558 4.77535C4.75092 2.83424 5.01303 1.36994 5.6726 1.0025C6.37515 0.611057 7.92869 1.16917 9.56607 2.56839C9.67073 2.65782 9.77581 2.75143 9.88118 2.84827C9.27103 3.4788 8.66813 4.19663 8.09222 4.97886C7.10458 5.06696 6.15917 5.20849 5.28994 5.398C5.23529 5.18643 5.18688 4.97857 5.14558 4.77535ZM14.204 6.92803C13.9962 6.5826 13.7829 6.24534 13.5654 5.91729C14.2355 5.99881 14.8774 6.10702 15.4803 6.23944C15.2993 6.79769 15.0737 7.38138 14.8082 7.97974C14.6177 7.63169 14.4162 7.28076 14.204 6.92803ZM10.51 3.46531C10.9238 3.89675 11.3382 4.37845 11.7458 4.90108C11.3351 4.88241 10.9193 4.8727 10.5 4.8727C10.0847 4.8727 9.67196 4.8822 9.26378 4.90054C9.67178 4.38276 10.0898 3.90171 10.51 3.46531ZM6.79234 6.934C6.58477 7.2804 6.38704 7.62942 6.19954 7.9791C5.93829 7.38282 5.7148 6.79647 5.53224 6.2303C6.13139 6.10126 6.77033 5.99575 7.4361 5.91578C7.21556 6.24685 7.00047 6.58667 6.79234 6.934ZM7.45527 12.0934C6.76741 12.0195 6.11887 11.9195 5.51986 11.794C5.70534 11.2177 5.93377 10.6188 6.20055 10.0097C6.38853 10.3591 6.58705 10.7083 6.79589 11.0555C7.00862 11.4091 7.22905 11.7556 7.45527 12.0934ZM10.5348 14.5431C10.1096 14.1016 9.68553 13.6132 9.27133 13.0879C9.67342 13.1031 10.0834 13.1109 10.5 13.1109C10.928 13.1109 11.3512 13.1016 11.7677 13.0837C11.3587 13.6185 10.9458 14.1077 10.5348 14.5431ZM14.8167 9.97866C15.0974 10.5944 15.334 11.1901 15.5219 11.7566C14.913 11.8902 14.2556 11.9979 13.563 12.0779C13.781 11.7454 13.9962 11.4024 14.2076 11.0495C14.4215 10.6925 14.6247 10.335 14.8167 9.97866ZM13.4305 10.6182C13.1023 11.166 12.7652 11.6889 12.4231 12.1825C11.8 12.2254 11.1562 12.2475 10.5 12.2475C9.84649 12.2475 9.21081 12.2279 8.59868 12.1897C8.24275 11.6896 7.89841 11.1651 7.57223 10.6229C7.24692 10.0821 6.94758 9.53679 6.67628 8.99451C6.94751 8.45097 7.24613 7.90502 7.56958 7.36523L7.56951 7.36534C7.89381 6.8241 8.23513 6.30218 8.58777 5.80523C9.21231 5.75979 9.85273 5.73609 10.5 5.73609C11.1501 5.73609 11.7914 5.75997 12.4157 5.80581C12.763 6.29912 13.102 6.81935 13.4276 7.36066C13.7569 7.90805 14.0593 8.45036 14.3329 8.98224C14.0602 9.52326 13.7584 10.071 13.4305 10.6182ZM15.2812 0.97681C15.9844 1.3671 16.2579 2.94112 15.816 5.00516C15.7878 5.13686 15.7561 5.27101 15.7216 5.40696C14.8504 5.21349 13.9043 5.06952 12.9138 4.98008C12.3368 4.18926 11.7388 3.47031 11.1386 2.84788C11.3 2.69848 11.4611 2.55602 11.6216 2.42158C13.1719 1.12308 14.621 0.61041 15.2812 0.97681ZM10.5 7.16906C11.5356 7.16906 12.3752 7.97704 12.3752 8.97379C12.3752 9.9705 11.5356 10.7785 10.5 10.7785C9.46436 10.7785 8.62477 9.9705 8.62477 8.97379C8.62477 7.97704 9.46436 7.16906 10.5 7.16906Z" fill="#257BC2"/>
</svg>
