<svg width="28" height="28" viewBox="0 0 28 28" fill="none" xmlns="http://www.w3.org/2000/svg">
<path d="M13.9758 0C6.60844 0 0.573125 5.67085 0 12.877L7.51669 15.9795C8.17304 15.53 8.95253 15.2897 9.75078 15.2907C9.82538 15.2907 9.89909 15.2927 9.97172 15.2967L13.3149 10.4592V10.3915C13.3149 7.48067 15.6872 5.1119 18.6035 5.1119C21.5196 5.1119 23.892 7.48067 23.892 10.3915C23.892 13.3022 21.5196 15.672 18.6035 15.672C18.563 15.672 18.5236 15.671 18.4834 15.67L13.7154 19.0649C13.7185 19.1279 13.7204 19.1908 13.7204 19.2527C13.7204 21.4387 11.9395 23.2166 9.75078 23.2166C7.8295 23.2166 6.22202 21.847 5.85878 20.0343L0.482344 17.8152C2.14736 23.6917 7.55595 28 13.9758 28C21.7215 28 28 21.7313 28 14C28 6.26788 21.7215 0 13.9758 0ZM8.7885 21.2426L7.06595 20.532C7.37078 21.1668 7.8995 21.6978 8.60081 21.9894C10.1164 22.6202 11.8641 21.9025 12.4959 20.3882C12.8017 19.6601 12.8035 18.8417 12.5009 18.1123C12.1982 17.3776 11.626 16.8046 10.8924 16.4991C10.1629 16.1967 9.38186 16.2077 8.69564 16.4663L10.4757 17.2009C11.5938 17.6662 12.1225 18.9478 11.6563 20.0638C11.1911 21.1798 9.90653 21.7079 8.7885 21.2426ZM22.1275 10.3915C22.1275 8.45206 20.5463 6.87292 18.6038 6.87292C16.6603 6.87292 15.0791 8.45206 15.0791 10.3915C15.0791 12.3311 16.6603 13.9092 18.6038 13.9092C20.5463 13.9092 22.1275 12.3311 22.1275 10.3915ZM15.9621 10.3856C15.9621 8.92619 17.1477 7.74337 18.609 7.74337C20.0711 7.74337 21.2567 8.92619 21.2567 10.3856C21.2567 11.8449 20.0711 13.0278 18.6088 13.0278C17.1477 13.0278 15.962 11.8449 15.962 10.3857L15.9621 10.3856Z" fill="white"/>
</svg>
