<svg width="27" height="16" viewBox="0 0 27 16" fill="none" xmlns="http://www.w3.org/2000/svg">
<g clip-path="url(#clip0_2213_9)">
<path d="M13.5 0C9.91406 0 7.69922 1.76623 6.75 5.2987C8.12109 3.53247 9.70312 2.90909 11.4961 3.32468C12.5508 3.53247 13.1836 4.25974 14.0273 5.09091C15.3984 6.44156 16.875 8 20.25 8C23.8359 8 26.0508 6.23377 27 2.7013C25.6289 4.46753 24.0469 5.09091 22.2539 4.67532C21.1992 4.36364 20.5664 3.63636 19.7227 2.80519C18.3516 1.55844 16.875 0 13.5 0ZM6.75 8C3.16406 8 0.949219 9.76623 0 13.2987C1.37109 11.5325 2.95312 10.9091 4.74609 11.3247C5.80078 11.5325 6.43359 12.2597 7.27734 13.0909C8.64844 14.4416 10.125 16 13.5 16C17.0859 16 19.3008 14.2338 20.25 10.5974C18.8789 12.3636 17.2969 13.0909 15.5039 12.6753C14.4492 12.3636 13.8164 11.6364 12.9727 10.8052C11.6016 9.55844 10.125 8 6.75 8Z" fill="url(#paint0_linear_2213_9)"/>
</g>
<defs>
<linearGradient id="paint0_linear_2213_9" x1="-75.6" y1="512" x2="2241.54" y2="1866.11" gradientUnits="userSpaceOnUse">
<stop stop-color="#2298BD"/>
<stop offset="1" stop-color="#0ED7B5"/>
</linearGradient>
<clipPath id="clip0_2213_9">
<rect width="27" height="16" fill="white"/>
</clipPath>
</defs>
</svg>
