<svg width="19" height="19" viewBox="0 0 19 19" fill="none" xmlns="http://www.w3.org/2000/svg">
<g clip-path="url(#clip0_2213_11)">
<path d="M1.48438 0H17.5156C18.3354 0 19 0.664577 19 1.48438V17.5156C19 18.3354 18.3354 19 17.5156 19H1.48438C0.664577 19 0 18.3354 0 17.5156V1.48438C0 0.664577 0.664577 0 1.48438 0Z" fill="#3178C6"/>
<path d="M11.1713 14.879V16.9289C11.5046 17.0998 11.899 17.2279 12.3542 17.3133C12.8093 17.3987 13.2891 17.4414 13.7935 17.4414C14.285 17.4414 14.7519 17.3944 15.1943 17.3005C15.6366 17.2065 16.0246 17.0517 16.3579 16.8361C16.6913 16.6204 16.9552 16.3385 17.1497 15.9904C17.3442 15.6424 17.4414 15.2122 17.4414 14.6997C17.4414 14.3282 17.3858 14.0025 17.2747 13.7227C17.1636 13.443 17.0033 13.1942 16.7938 12.9765C16.5845 12.7586 16.3333 12.5633 16.0406 12.3903C15.7478 12.2174 15.4176 12.054 15.05 11.9003C14.7807 11.7892 14.5393 11.6814 14.3256 11.5768C14.1119 11.4721 13.9302 11.3654 13.7806 11.2565C13.631 11.1476 13.5156 11.0322 13.4344 10.9105C13.3532 10.7888 13.3126 10.6511 13.3126 10.4974C13.3126 10.3564 13.3489 10.2294 13.4216 10.1162C13.4942 10.0031 13.5969 9.9059 13.7294 9.82478C13.8618 9.74359 14.0242 9.68065 14.2166 9.63575C14.4089 9.59092 14.6227 9.5685 14.8577 9.5685C15.0287 9.5685 15.2093 9.58134 15.3994 9.60695C15.5896 9.63255 15.7809 9.67204 15.9733 9.72548C16.1656 9.77884 16.3525 9.84608 16.5342 9.92728C16.7158 10.0084 16.8837 10.1024 17.0375 10.2091V8.29372C16.7255 8.17416 16.3846 8.08554 16.0149 8.02787C15.6452 7.9702 15.221 7.94141 14.7423 7.94141C14.255 7.94141 13.7935 7.99373 13.3575 8.09838C12.9216 8.20295 12.5379 8.36631 12.2067 8.58837C11.8754 8.81051 11.6137 9.09343 11.4213 9.43721C11.229 9.78099 11.1328 10.192 11.1328 10.6704C11.1328 11.281 11.3091 11.802 11.6618 12.2334C12.0144 12.6647 12.5496 13.0298 13.2677 13.3288C13.5498 13.4441 13.8127 13.5572 14.0563 13.6683C14.2999 13.7794 14.5104 13.8946 14.6878 14.0142C14.8652 14.1338 15.0052 14.264 15.1077 14.405C15.2103 14.5459 15.2616 14.7061 15.2616 14.8855C15.2616 15.0178 15.2295 15.1406 15.1654 15.2538C15.1014 15.3669 15.0041 15.4652 14.8737 15.5485C14.7434 15.6317 14.5809 15.6968 14.3865 15.7438C14.192 15.7908 13.9644 15.8143 13.7037 15.8143C13.2592 15.8143 12.819 15.7364 12.383 15.5804C11.947 15.4246 11.5431 15.1908 11.1713 14.879ZM7.75452 9.77773H10.3906V8.08984H3.04297V9.77773H5.66621V17.293H7.75452V9.77773Z" fill="white"/>
</g>
<defs>
<clipPath id="clip0_2213_11">
<rect width="19" height="19" fill="white"/>
</clipPath>
</defs>
</svg>
